<svg width="422" height="422" viewBox="0 0 422 422" fill="none" xmlns="http://www.w3.org/2000/svg">
<rect x="0.873108" width="421.06" height="421.06" fill="#0054FA"/>
<mask id="path-2-inside-1_88_1157" fill="white">
<rect x="82.7195" y="111.642" width="257.368" height="197.373" rx="2.31863"/>
</mask>
<rect x="82.7195" y="111.642" width="257.368" height="197.373" rx="2.31863" stroke="white" stroke-width="32.4609" mask="url(#path-2-inside-1_88_1157)"/>
<path d="M142.183 157.017H162.661L175.868 266.828H158.506L156.577 242.937H147.376L145.447 266.828H128.976L142.183 157.017ZM150.344 205.839L148.564 228.394H155.39L153.46 205.839L152.125 186.844H151.68L150.344 205.839ZM212.256 266.828H194.598V157.017H217.747C230.36 157.017 238.077 164.437 238.077 177.792V204.8C238.077 218.007 230.36 225.426 217.747 225.426H212.256V266.828ZM212.405 212.219H216.263C219.231 212.219 220.418 209.548 220.418 204.8V177.792C220.418 172.895 219.231 170.224 216.263 170.224H212.405V212.219ZM258.418 266.828V157.017H292.845V171.56H276.077V204.058H291.064V218.6H276.077V252.285H292.845V266.828H258.418Z" fill="white"/>
</svg>
